<mxfile host="app.diagrams.net" modified="2024-06-06T10:56:04.352Z" agent="Mozilla/5.0 (Windows NT 10.0; Win64; x64) AppleWebKit/537.36 (KHTML, like Gecko) Chrome/125.0.0.0 Safari/537.36 Edg/125.0.0.0" version="24.4.14" etag="8xESsC5k4i23ZPG7mkYB" type="device">
  <diagram id="LNFupdHZOd-QEx7SaX8d" name="Page-1">
    <mxGraphModel dx="3188" dy="4136" grid="1" gridSize="10" guides="1" tooltips="1" connect="1" arrows="1" fold="1" page="1" pageScale="1" pageWidth="1654" pageHeight="2336" math="0" shadow="0">
      <root>
        <mxCell id="0" />
        <mxCell id="1" parent="0" />
        <mxCell id="DTKbkBl8oeqz9tWfyzRD-143" value="" style="rounded=0;whiteSpace=wrap;html=1;" vertex="1" parent="1">
          <mxGeometry x="3190" y="-2115" width="480" height="240" as="geometry" />
        </mxCell>
        <mxCell id="DTKbkBl8oeqz9tWfyzRD-1" value="" style="rounded=0;whiteSpace=wrap;html=1;fillColor=none;dashed=1;" vertex="1" parent="1">
          <mxGeometry x="2600.31" y="-1110" width="1119.69" height="520" as="geometry" />
        </mxCell>
        <mxCell id="DTKbkBl8oeqz9tWfyzRD-141" style="edgeStyle=orthogonalEdgeStyle;rounded=0;orthogonalLoop=1;jettySize=auto;html=1;startArrow=classic;startFill=1;endArrow=none;endFill=0;" edge="1" parent="1" source="DTKbkBl8oeqz9tWfyzRD-138">
          <mxGeometry relative="1" as="geometry">
            <mxPoint x="3010" y="-1070" as="targetPoint" />
            <Array as="points">
              <mxPoint x="2875" y="-1070" />
            </Array>
          </mxGeometry>
        </mxCell>
        <mxCell id="DTKbkBl8oeqz9tWfyzRD-138" value="" style="rounded=0;whiteSpace=wrap;html=1;" vertex="1" parent="1">
          <mxGeometry x="2625" y="-950" width="500" height="270" as="geometry" />
        </mxCell>
        <mxCell id="DTKbkBl8oeqz9tWfyzRD-3" value="" style="rounded=0;whiteSpace=wrap;html=1;fillColor=none;dashed=1;" vertex="1" parent="1">
          <mxGeometry x="1385" y="-1110" width="1195" height="520" as="geometry" />
        </mxCell>
        <mxCell id="DTKbkBl8oeqz9tWfyzRD-2" value="" style="rounded=0;whiteSpace=wrap;html=1;" vertex="1" parent="1">
          <mxGeometry x="1410.31" y="-950" width="500" height="270" as="geometry" />
        </mxCell>
        <mxCell id="DTKbkBl8oeqz9tWfyzRD-5" value="" style="rounded=0;whiteSpace=wrap;html=1;fillColor=none;dashed=1;" vertex="1" parent="1">
          <mxGeometry x="210" y="-1110" width="1080.31" height="520" as="geometry" />
        </mxCell>
        <mxCell id="DTKbkBl8oeqz9tWfyzRD-134" style="edgeStyle=orthogonalEdgeStyle;rounded=0;orthogonalLoop=1;jettySize=auto;html=1;exitX=0.5;exitY=0;exitDx=0;exitDy=0;startArrow=classic;startFill=1;endArrow=none;endFill=0;" edge="1" parent="1" source="DTKbkBl8oeqz9tWfyzRD-6">
          <mxGeometry relative="1" as="geometry">
            <mxPoint x="460" y="-1010" as="sourcePoint" />
            <mxPoint x="460" y="-1070" as="targetPoint" />
            <Array as="points">
              <mxPoint x="460" y="-1070" />
            </Array>
          </mxGeometry>
        </mxCell>
        <mxCell id="DTKbkBl8oeqz9tWfyzRD-6" value="" style="rounded=0;whiteSpace=wrap;html=1;" vertex="1" parent="1">
          <mxGeometry x="220" y="-950" width="480" height="270" as="geometry" />
        </mxCell>
        <mxCell id="DTKbkBl8oeqz9tWfyzRD-7" value="&lt;b style=&quot;&quot;&gt;&lt;font style=&quot;font-size: 20px;&quot;&gt;MASTER CONTROLLER&lt;br&gt;ESP&lt;/font&gt;&lt;/b&gt;" style="rounded=1;whiteSpace=wrap;html=1;fillColor=#dae8fc;strokeColor=#6c8ebf;" vertex="1" parent="1">
          <mxGeometry x="965.31" y="-1687.5" width="410" height="270" as="geometry" />
        </mxCell>
        <mxCell id="DTKbkBl8oeqz9tWfyzRD-8" value="&lt;b&gt;USB to UART Debugging&lt;/b&gt;" style="rounded=0;whiteSpace=wrap;html=1;fillColor=#fff2cc;strokeColor=#d6b656;" vertex="1" parent="1">
          <mxGeometry x="540.31" y="-1567.5" width="120" height="40" as="geometry" />
        </mxCell>
        <mxCell id="DTKbkBl8oeqz9tWfyzRD-9" style="edgeStyle=orthogonalEdgeStyle;rounded=0;orthogonalLoop=1;jettySize=auto;html=1;" edge="1" parent="1" source="DTKbkBl8oeqz9tWfyzRD-10" target="DTKbkBl8oeqz9tWfyzRD-7">
          <mxGeometry relative="1" as="geometry">
            <mxPoint x="960.31" y="-1577.5" as="targetPoint" />
            <Array as="points">
              <mxPoint x="890.31" y="-1497.5" />
              <mxPoint x="890.31" y="-1497.5" />
            </Array>
          </mxGeometry>
        </mxCell>
        <mxCell id="DTKbkBl8oeqz9tWfyzRD-10" value="&lt;b&gt;USB Type-C&lt;/b&gt;" style="rounded=0;whiteSpace=wrap;html=1;fillColor=#ffe6cc;strokeColor=#d79b00;" vertex="1" parent="1">
          <mxGeometry x="540.31" y="-1517.5" width="120" height="40" as="geometry" />
        </mxCell>
        <mxCell id="DTKbkBl8oeqz9tWfyzRD-11" value="&lt;b&gt;Status LED&lt;/b&gt;" style="rounded=0;whiteSpace=wrap;html=1;fillColor=#e1d5e7;strokeColor=#9673a6;" vertex="1" parent="1">
          <mxGeometry x="560.31" y="-1970" width="120" height="40" as="geometry" />
        </mxCell>
        <mxCell id="DTKbkBl8oeqz9tWfyzRD-12" value="&lt;span style=&quot;font-size: 16px;&quot;&gt;RS-485/CAN/USB/RS-232&lt;/span&gt;" style="text;html=1;align=center;verticalAlign=middle;whiteSpace=wrap;rounded=0;" vertex="1" parent="1">
          <mxGeometry x="2860" y="-2040" width="210" height="60" as="geometry" />
        </mxCell>
        <mxCell id="DTKbkBl8oeqz9tWfyzRD-13" style="edgeStyle=orthogonalEdgeStyle;rounded=0;orthogonalLoop=1;jettySize=auto;html=1;entryX=0.5;entryY=1;entryDx=0;entryDy=0;" edge="1" parent="1" source="DTKbkBl8oeqz9tWfyzRD-14" target="DTKbkBl8oeqz9tWfyzRD-21">
          <mxGeometry relative="1" as="geometry" />
        </mxCell>
        <mxCell id="DTKbkBl8oeqz9tWfyzRD-14" value="&lt;font style=&quot;font-size: 16px;&quot;&gt;REED SENSOR&lt;/font&gt;&lt;div&gt;&lt;span style=&quot;font-size: 16px;&quot;&gt;x12&lt;/span&gt;&lt;/div&gt;" style="rounded=0;whiteSpace=wrap;html=1;fillColor=#f8cecc;strokeColor=#b85450;" vertex="1" parent="1">
          <mxGeometry x="530.31" y="-1850" width="150" height="50" as="geometry" />
        </mxCell>
        <mxCell id="DTKbkBl8oeqz9tWfyzRD-15" style="edgeStyle=orthogonalEdgeStyle;rounded=0;orthogonalLoop=1;jettySize=auto;html=1;entryX=0;entryY=0.5;entryDx=0;entryDy=0;" edge="1" parent="1" target="DTKbkBl8oeqz9tWfyzRD-21">
          <mxGeometry relative="1" as="geometry">
            <Array as="points">
              <mxPoint x="680.31" y="-1890" />
              <mxPoint x="680.31" y="-1890" />
            </Array>
            <mxPoint x="685.31" y="-1890" as="sourcePoint" />
          </mxGeometry>
        </mxCell>
        <mxCell id="DTKbkBl8oeqz9tWfyzRD-16" value="&lt;span style=&quot;font-size: 16px;&quot;&gt;DISPLAY&lt;/span&gt;" style="rounded=0;whiteSpace=wrap;html=1;fillColor=#f8cecc;strokeColor=#b85450;" vertex="1" parent="1">
          <mxGeometry x="525.31" y="-1650" width="150" height="50" as="geometry" />
        </mxCell>
        <mxCell id="DTKbkBl8oeqz9tWfyzRD-17" style="edgeStyle=orthogonalEdgeStyle;rounded=0;orthogonalLoop=1;jettySize=auto;html=1;" edge="1" parent="1" source="DTKbkBl8oeqz9tWfyzRD-18" target="DTKbkBl8oeqz9tWfyzRD-29">
          <mxGeometry relative="1" as="geometry" />
        </mxCell>
        <mxCell id="DTKbkBl8oeqz9tWfyzRD-18" value="&lt;span style=&quot;font-size: 16px;&quot;&gt;RFID&lt;/span&gt;&lt;div&gt;&lt;span style=&quot;font-size: 16px;&quot;&gt;x2&lt;/span&gt;&lt;/div&gt;" style="rounded=0;whiteSpace=wrap;html=1;fillColor=#f8cecc;strokeColor=#b85450;" vertex="1" parent="1">
          <mxGeometry x="1650.31" y="-2020" width="270" height="120" as="geometry" />
        </mxCell>
        <mxCell id="DTKbkBl8oeqz9tWfyzRD-19" style="edgeStyle=orthogonalEdgeStyle;rounded=0;orthogonalLoop=1;jettySize=auto;html=1;exitX=1;exitY=0.5;exitDx=0;exitDy=0;" edge="1" parent="1" source="DTKbkBl8oeqz9tWfyzRD-8">
          <mxGeometry relative="1" as="geometry">
            <mxPoint x="965.31" y="-1547.5" as="targetPoint" />
            <mxPoint x="665.31" y="-1627.76" as="sourcePoint" />
          </mxGeometry>
        </mxCell>
        <mxCell id="DTKbkBl8oeqz9tWfyzRD-20" style="edgeStyle=orthogonalEdgeStyle;rounded=0;orthogonalLoop=1;jettySize=auto;html=1;entryX=1;entryY=0.5;entryDx=0;entryDy=0;" edge="1" parent="1" source="DTKbkBl8oeqz9tWfyzRD-21" target="DTKbkBl8oeqz9tWfyzRD-11">
          <mxGeometry relative="1" as="geometry">
            <Array as="points">
              <mxPoint x="880.31" y="-1950" />
            </Array>
          </mxGeometry>
        </mxCell>
        <mxCell id="DTKbkBl8oeqz9tWfyzRD-21" value="IO EXPANDER" style="rounded=1;whiteSpace=wrap;html=1;fillColor=#f8cecc;strokeColor=#b85450;" vertex="1" parent="1">
          <mxGeometry x="800.31" y="-1910" width="160" height="40" as="geometry" />
        </mxCell>
        <mxCell id="DTKbkBl8oeqz9tWfyzRD-22" style="edgeStyle=orthogonalEdgeStyle;rounded=0;orthogonalLoop=1;jettySize=auto;html=1;entryX=0.132;entryY=0.004;entryDx=0;entryDy=0;entryPerimeter=0;" edge="1" parent="1" source="DTKbkBl8oeqz9tWfyzRD-21" target="DTKbkBl8oeqz9tWfyzRD-7">
          <mxGeometry relative="1" as="geometry" />
        </mxCell>
        <mxCell id="DTKbkBl8oeqz9tWfyzRD-23" value="&lt;b&gt;UART&lt;/b&gt;" style="text;html=1;align=center;verticalAlign=middle;resizable=0;points=[];autosize=1;strokeColor=none;fillColor=none;" vertex="1" parent="1">
          <mxGeometry x="780.31" y="-1650" width="60" height="30" as="geometry" />
        </mxCell>
        <mxCell id="DTKbkBl8oeqz9tWfyzRD-24" style="edgeStyle=orthogonalEdgeStyle;rounded=0;orthogonalLoop=1;jettySize=auto;html=1;" edge="1" parent="1" source="DTKbkBl8oeqz9tWfyzRD-25" target="DTKbkBl8oeqz9tWfyzRD-7">
          <mxGeometry relative="1" as="geometry">
            <Array as="points">
              <mxPoint x="1043.31" y="-1834" />
              <mxPoint x="1080.31" y="-1834" />
            </Array>
          </mxGeometry>
        </mxCell>
        <mxCell id="DTKbkBl8oeqz9tWfyzRD-25" value="&lt;span style=&quot;font-size: 16px;&quot;&gt;ESP CAM&lt;/span&gt;" style="rounded=0;whiteSpace=wrap;html=1;fillColor=#f8cecc;strokeColor=#b85450;" vertex="1" parent="1">
          <mxGeometry x="960.31" y="-2020" width="165" height="40" as="geometry" />
        </mxCell>
        <mxCell id="DTKbkBl8oeqz9tWfyzRD-26" style="edgeStyle=orthogonalEdgeStyle;rounded=0;orthogonalLoop=1;jettySize=auto;html=1;exitX=0.25;exitY=1;exitDx=0;exitDy=0;entryX=0.5;entryY=0;entryDx=0;entryDy=0;endArrow=none;endFill=0;" edge="1" parent="1" source="DTKbkBl8oeqz9tWfyzRD-29" target="DTKbkBl8oeqz9tWfyzRD-5">
          <mxGeometry relative="1" as="geometry">
            <mxPoint x="880.31" y="-1150" as="targetPoint" />
          </mxGeometry>
        </mxCell>
        <mxCell id="DTKbkBl8oeqz9tWfyzRD-27" style="edgeStyle=orthogonalEdgeStyle;rounded=0;orthogonalLoop=1;jettySize=auto;html=1;exitX=0.5;exitY=1;exitDx=0;exitDy=0;endArrow=none;endFill=0;" edge="1" parent="1" source="DTKbkBl8oeqz9tWfyzRD-29">
          <mxGeometry relative="1" as="geometry">
            <mxPoint x="1785" y="-1110" as="targetPoint" />
          </mxGeometry>
        </mxCell>
        <mxCell id="DTKbkBl8oeqz9tWfyzRD-28" style="edgeStyle=orthogonalEdgeStyle;rounded=0;orthogonalLoop=1;jettySize=auto;html=1;exitX=0.75;exitY=1;exitDx=0;exitDy=0;endArrow=none;endFill=0;entryX=0.365;entryY=-0.002;entryDx=0;entryDy=0;entryPerimeter=0;" edge="1" parent="1" source="DTKbkBl8oeqz9tWfyzRD-29" target="DTKbkBl8oeqz9tWfyzRD-1">
          <mxGeometry relative="1" as="geometry">
            <mxPoint x="3010" y="-1140" as="targetPoint" />
            <Array as="points">
              <mxPoint x="1888" y="-1340" />
              <mxPoint x="3010" y="-1340" />
              <mxPoint x="3010" y="-1111" />
            </Array>
          </mxGeometry>
        </mxCell>
        <mxCell id="DTKbkBl8oeqz9tWfyzRD-164" style="edgeStyle=orthogonalEdgeStyle;rounded=0;orthogonalLoop=1;jettySize=auto;html=1;exitX=1;exitY=0.25;exitDx=0;exitDy=0;entryX=0;entryY=0.5;entryDx=0;entryDy=0;" edge="1" parent="1" source="DTKbkBl8oeqz9tWfyzRD-29" target="DTKbkBl8oeqz9tWfyzRD-143">
          <mxGeometry relative="1" as="geometry">
            <Array as="points">
              <mxPoint x="2160" y="-1620" />
              <mxPoint x="2160" y="-1760" />
              <mxPoint x="2590" y="-1760" />
              <mxPoint x="2590" y="-1995" />
            </Array>
          </mxGeometry>
        </mxCell>
        <mxCell id="DTKbkBl8oeqz9tWfyzRD-29" value="&lt;span style=&quot;font-size: 20px;&quot;&gt;&lt;b&gt;AUXILARY MCU&lt;/b&gt;&lt;/span&gt;" style="rounded=1;whiteSpace=wrap;html=1;fillColor=#dae8fc;strokeColor=#6c8ebf;" vertex="1" parent="1">
          <mxGeometry x="1580.31" y="-1687.5" width="410" height="270" as="geometry" />
        </mxCell>
        <mxCell id="DTKbkBl8oeqz9tWfyzRD-30" value="" style="endArrow=classic;startArrow=classic;html=1;rounded=0;exitX=1;exitY=0.5;exitDx=0;exitDy=0;entryX=0;entryY=0.5;entryDx=0;entryDy=0;" edge="1" parent="1" source="DTKbkBl8oeqz9tWfyzRD-7" target="DTKbkBl8oeqz9tWfyzRD-29">
          <mxGeometry width="50" height="50" relative="1" as="geometry">
            <mxPoint x="1400.31" y="-1550" as="sourcePoint" />
            <mxPoint x="1450.31" y="-1600" as="targetPoint" />
          </mxGeometry>
        </mxCell>
        <mxCell id="DTKbkBl8oeqz9tWfyzRD-31" value="" style="endArrow=classic;html=1;rounded=0;entryX=1;entryY=0.5;entryDx=0;entryDy=0;exitX=-0.004;exitY=0.232;exitDx=0;exitDy=0;exitPerimeter=0;" edge="1" parent="1" source="DTKbkBl8oeqz9tWfyzRD-7" target="DTKbkBl8oeqz9tWfyzRD-16">
          <mxGeometry width="50" height="50" relative="1" as="geometry">
            <mxPoint x="860.31" y="-1590" as="sourcePoint" />
            <mxPoint x="910.31" y="-1640" as="targetPoint" />
          </mxGeometry>
        </mxCell>
        <mxCell id="DTKbkBl8oeqz9tWfyzRD-33" value="&lt;span style=&quot;font-size: 16px;&quot;&gt;Analog IO x2&lt;/span&gt;" style="rounded=0;whiteSpace=wrap;html=1;fillColor=#f8cecc;strokeColor=#b85450;" vertex="1" parent="1">
          <mxGeometry x="1360.31" y="-2020" width="160" height="40" as="geometry" />
        </mxCell>
        <mxCell id="DTKbkBl8oeqz9tWfyzRD-34" value="" style="endArrow=classic;html=1;rounded=0;entryX=0.5;entryY=1;entryDx=0;entryDy=0;" edge="1" parent="1">
          <mxGeometry width="50" height="50" relative="1" as="geometry">
            <mxPoint x="1240.31" y="-1750" as="sourcePoint" />
            <mxPoint x="1240.31" y="-1980" as="targetPoint" />
          </mxGeometry>
        </mxCell>
        <mxCell id="DTKbkBl8oeqz9tWfyzRD-35" value="" style="endArrow=classic;html=1;rounded=0;entryX=0.622;entryY=0;entryDx=0;entryDy=0;entryPerimeter=0;" edge="1" parent="1" target="DTKbkBl8oeqz9tWfyzRD-7">
          <mxGeometry width="50" height="50" relative="1" as="geometry">
            <mxPoint x="1220.31" y="-1750" as="sourcePoint" />
            <mxPoint x="1220.31" y="-1700" as="targetPoint" />
          </mxGeometry>
        </mxCell>
        <mxCell id="DTKbkBl8oeqz9tWfyzRD-36" value="" style="endArrow=classic;html=1;rounded=0;entryX=0.5;entryY=1;entryDx=0;entryDy=0;" edge="1" parent="1" target="DTKbkBl8oeqz9tWfyzRD-33">
          <mxGeometry width="50" height="50" relative="1" as="geometry">
            <mxPoint x="1440.31" y="-1750" as="sourcePoint" />
            <mxPoint x="1480.31" y="-1820" as="targetPoint" />
          </mxGeometry>
        </mxCell>
        <mxCell id="DTKbkBl8oeqz9tWfyzRD-37" value="" style="endArrow=none;html=1;rounded=0;" edge="1" parent="1">
          <mxGeometry width="50" height="50" relative="1" as="geometry">
            <mxPoint x="1320.31" y="-1750" as="sourcePoint" />
            <mxPoint x="1440.31" y="-1750" as="targetPoint" />
          </mxGeometry>
        </mxCell>
        <mxCell id="DTKbkBl8oeqz9tWfyzRD-38" value="" style="endArrow=none;html=1;rounded=0;" edge="1" parent="1">
          <mxGeometry width="50" height="50" relative="1" as="geometry">
            <mxPoint x="1220.31" y="-1750" as="sourcePoint" />
            <mxPoint x="1240.31" y="-1750" as="targetPoint" />
          </mxGeometry>
        </mxCell>
        <mxCell id="DTKbkBl8oeqz9tWfyzRD-39" value="" style="endArrow=classic;html=1;rounded=0;entryX=0.866;entryY=-0.001;entryDx=0;entryDy=0;entryPerimeter=0;" edge="1" parent="1" target="DTKbkBl8oeqz9tWfyzRD-7">
          <mxGeometry width="50" height="50" relative="1" as="geometry">
            <mxPoint x="1320.31" y="-1750" as="sourcePoint" />
            <mxPoint x="1320.31" y="-1690" as="targetPoint" />
          </mxGeometry>
        </mxCell>
        <mxCell id="DTKbkBl8oeqz9tWfyzRD-40" value="RS-232" style="text;html=1;align=center;verticalAlign=middle;resizable=0;points=[];autosize=1;strokeColor=none;fillColor=none;" vertex="1" parent="1">
          <mxGeometry x="1790.31" y="-1820" width="60" height="30" as="geometry" />
        </mxCell>
        <mxCell id="DTKbkBl8oeqz9tWfyzRD-42" value="&lt;font style=&quot;font-size: 16px;&quot;&gt;COMM CHANNEL&lt;/font&gt;" style="text;html=1;align=center;verticalAlign=middle;whiteSpace=wrap;rounded=0;" vertex="1" parent="1">
          <mxGeometry x="1375.31" y="-1597.5" width="210" height="60" as="geometry" />
        </mxCell>
        <mxCell id="DTKbkBl8oeqz9tWfyzRD-44" value="&lt;font style=&quot;font-size: 16px;&quot;&gt;4x SERVO DRIVER&lt;br&gt;WITH MCU&lt;/font&gt;" style="rounded=1;whiteSpace=wrap;html=1;fillColor=#d5e8d4;strokeColor=#82b366;" vertex="1" parent="1">
          <mxGeometry x="240" y="-915" width="200" height="80" as="geometry" />
        </mxCell>
        <mxCell id="DTKbkBl8oeqz9tWfyzRD-46" value="&lt;font style=&quot;font-size: 16px;&quot;&gt;4x SERVO DRIVER&lt;/font&gt;&lt;div&gt;&lt;font style=&quot;font-size: 16px;&quot;&gt;WITH MCU&lt;/font&gt;&lt;/div&gt;" style="rounded=1;whiteSpace=wrap;html=1;fillColor=#d5e8d4;strokeColor=#82b366;" vertex="1" parent="1">
          <mxGeometry x="480" y="-915" width="200" height="80" as="geometry" />
        </mxCell>
        <mxCell id="DTKbkBl8oeqz9tWfyzRD-47" value="&lt;font style=&quot;font-size: 16px;&quot;&gt;RS-485/CAN/USB/RS-232&lt;/font&gt;" style="text;html=1;align=center;verticalAlign=middle;whiteSpace=wrap;rounded=0;" vertex="1" parent="1">
          <mxGeometry x="1444" y="-1280" width="210" height="60" as="geometry" />
        </mxCell>
        <mxCell id="DTKbkBl8oeqz9tWfyzRD-133" style="edgeStyle=orthogonalEdgeStyle;rounded=0;orthogonalLoop=1;jettySize=auto;html=1;exitX=0.5;exitY=0;exitDx=0;exitDy=0;startArrow=classic;startFill=1;endArrow=none;endFill=0;" edge="1" parent="1" source="DTKbkBl8oeqz9tWfyzRD-49">
          <mxGeometry relative="1" as="geometry">
            <mxPoint x="750" y="-1120" as="targetPoint" />
          </mxGeometry>
        </mxCell>
        <mxCell id="DTKbkBl8oeqz9tWfyzRD-49" value="DIO INTERFACE&lt;div&gt;WITH MCU&lt;/div&gt;" style="rounded=1;whiteSpace=wrap;html=1;" vertex="1" parent="1">
          <mxGeometry x="740.31" y="-1020" width="200" height="80" as="geometry" />
        </mxCell>
        <mxCell id="DTKbkBl8oeqz9tWfyzRD-50" value="RS-485 INERFACE&lt;div&gt;WITH MCU&lt;/div&gt;" style="rounded=1;whiteSpace=wrap;html=1;fillColor=#647687;fontColor=#ffffff;strokeColor=#314354;" vertex="1" parent="1">
          <mxGeometry x="740.31" y="-930" width="200" height="80" as="geometry" />
        </mxCell>
        <mxCell id="DTKbkBl8oeqz9tWfyzRD-51" value="&lt;font style=&quot;font-size: 16px;&quot;&gt;4x STEPPER DRIVER&lt;/font&gt;&lt;div&gt;&lt;font style=&quot;font-size: 16px;&quot;&gt;WITH MCU&lt;/font&gt;&lt;/div&gt;" style="rounded=1;whiteSpace=wrap;html=1;fillColor=#d5e8d4;strokeColor=#82b366;" vertex="1" parent="1">
          <mxGeometry x="1440.31" y="-912.5" width="200" height="80" as="geometry" />
        </mxCell>
        <mxCell id="DTKbkBl8oeqz9tWfyzRD-52" value="&lt;font style=&quot;font-size: 16px;&quot;&gt;4x STEPPER DRIVER&lt;/font&gt;&lt;div&gt;&lt;font style=&quot;font-size: 16px;&quot;&gt;WITH MCU&lt;/font&gt;&lt;/div&gt;" style="rounded=1;whiteSpace=wrap;html=1;fillColor=#d5e8d4;strokeColor=#82b366;" vertex="1" parent="1">
          <mxGeometry x="1680.31" y="-912.5" width="200" height="80" as="geometry" />
        </mxCell>
        <mxCell id="DTKbkBl8oeqz9tWfyzRD-53" value="&lt;font style=&quot;font-size: 20px;&quot;&gt;SERVO DRIVER BOARD&lt;/font&gt;" style="text;html=1;align=center;verticalAlign=middle;whiteSpace=wrap;rounded=0;" vertex="1" parent="1">
          <mxGeometry x="200" y="-1140" width="280" height="30" as="geometry" />
        </mxCell>
        <mxCell id="DTKbkBl8oeqz9tWfyzRD-54" value="&lt;font style=&quot;font-size: 20px;&quot;&gt;STEPPER DRIVER BOARD&lt;/font&gt;" style="text;html=1;align=center;verticalAlign=middle;whiteSpace=wrap;rounded=0;" vertex="1" parent="1">
          <mxGeometry x="1399.06" y="-1140" width="261.25" height="30" as="geometry" />
        </mxCell>
        <mxCell id="DTKbkBl8oeqz9tWfyzRD-55" style="edgeStyle=orthogonalEdgeStyle;rounded=0;orthogonalLoop=1;jettySize=auto;html=1;startArrow=classic;startFill=1;endArrow=none;endFill=0;" edge="1" parent="1" source="DTKbkBl8oeqz9tWfyzRD-56">
          <mxGeometry relative="1" as="geometry">
            <mxPoint x="1790" y="-1110" as="targetPoint" />
            <Array as="points">
              <mxPoint x="2060.31" y="-1050" />
              <mxPoint x="1785.31" y="-1050" />
            </Array>
          </mxGeometry>
        </mxCell>
        <mxCell id="DTKbkBl8oeqz9tWfyzRD-56" value="&lt;font style=&quot;font-size: 16px;&quot;&gt;DIO INTERFACE&lt;/font&gt;&lt;div style=&quot;font-size: 16px;&quot;&gt;&lt;font style=&quot;font-size: 16px;&quot;&gt;WITH MCU&lt;/font&gt;&lt;/div&gt;" style="rounded=1;whiteSpace=wrap;html=1;" vertex="1" parent="1">
          <mxGeometry x="1970.31" y="-1000" width="200" height="80" as="geometry" />
        </mxCell>
        <mxCell id="DTKbkBl8oeqz9tWfyzRD-57" value="&lt;span style=&quot;font-size: 16px;&quot;&gt;RS-485/CAN/USB/RS-232&lt;/span&gt;" style="text;html=1;align=center;verticalAlign=middle;whiteSpace=wrap;rounded=0;" vertex="1" parent="1">
          <mxGeometry x="1790.31" y="-1280" width="210" height="60" as="geometry" />
        </mxCell>
        <mxCell id="DTKbkBl8oeqz9tWfyzRD-58" value="&lt;span style=&quot;font-size: 16px;&quot;&gt;RS-485/CAN/USB/RS-232&lt;/span&gt;" style="text;html=1;align=center;verticalAlign=middle;whiteSpace=wrap;rounded=0;" vertex="1" parent="1">
          <mxGeometry x="2770" y="-1320" width="210" height="60" as="geometry" />
        </mxCell>
        <mxCell id="DTKbkBl8oeqz9tWfyzRD-64" value="&lt;font style=&quot;font-size: 20px;&quot;&gt;BLDC DRIVER BOARD&lt;/font&gt;" style="text;html=1;align=center;verticalAlign=middle;whiteSpace=wrap;rounded=0;" vertex="1" parent="1">
          <mxGeometry x="2580" y="-1170" width="260.31" height="30" as="geometry" />
        </mxCell>
        <mxCell id="DTKbkBl8oeqz9tWfyzRD-65" style="edgeStyle=orthogonalEdgeStyle;rounded=0;orthogonalLoop=1;jettySize=auto;html=1;entryX=0.75;entryY=0;entryDx=0;entryDy=0;" edge="1" parent="1" source="DTKbkBl8oeqz9tWfyzRD-66" target="DTKbkBl8oeqz9tWfyzRD-29">
          <mxGeometry relative="1" as="geometry" />
        </mxCell>
        <mxCell id="DTKbkBl8oeqz9tWfyzRD-66" value="&lt;span style=&quot;font-size: 16px;&quot;&gt;WEIGH SENSOR / EXTERNAL SENSORS&lt;/span&gt;" style="rounded=0;whiteSpace=wrap;html=1;fillColor=#f8cecc;strokeColor=#b85450;" vertex="1" parent="1">
          <mxGeometry x="1950.62" y="-2020" width="270" height="120" as="geometry" />
        </mxCell>
        <mxCell id="DTKbkBl8oeqz9tWfyzRD-67" value="RS-485" style="text;html=1;align=center;verticalAlign=middle;resizable=0;points=[];autosize=1;strokeColor=none;fillColor=none;" vertex="1" parent="1">
          <mxGeometry x="1970.31" y="-1820" width="60" height="30" as="geometry" />
        </mxCell>
        <mxCell id="DTKbkBl8oeqz9tWfyzRD-68" value="&lt;span style=&quot;font-size: 16px;&quot;&gt;EMERGENCY STOP&lt;/span&gt;" style="rounded=0;whiteSpace=wrap;html=1;" vertex="1" parent="1">
          <mxGeometry x="1160.31" y="-2040" width="150" height="50" as="geometry" />
        </mxCell>
        <mxCell id="DTKbkBl8oeqz9tWfyzRD-69" value="&lt;span style=&quot;font-size: 16px;&quot;&gt;RESUME&lt;/span&gt;" style="rounded=0;whiteSpace=wrap;html=1;" vertex="1" parent="1">
          <mxGeometry x="1160.31" y="-2100" width="150" height="50" as="geometry" />
        </mxCell>
        <mxCell id="DTKbkBl8oeqz9tWfyzRD-70" value="&lt;span style=&quot;font-size: 16px;&quot;&gt;PAUSE&lt;/span&gt;" style="rounded=0;whiteSpace=wrap;html=1;" vertex="1" parent="1">
          <mxGeometry x="1160.31" y="-2160" width="150" height="50" as="geometry" />
        </mxCell>
        <mxCell id="DTKbkBl8oeqz9tWfyzRD-71" value="&lt;span style=&quot;font-size: 16px;&quot;&gt;RESTART&lt;/span&gt;" style="rounded=0;whiteSpace=wrap;html=1;" vertex="1" parent="1">
          <mxGeometry x="1160.31" y="-2220" width="150" height="50" as="geometry" />
        </mxCell>
        <mxCell id="DTKbkBl8oeqz9tWfyzRD-72" value="" style="rounded=0;whiteSpace=wrap;html=1;fillColor=none;dashed=1;dashPattern=8 8;strokeWidth=2;strokeColor=#b85450;" vertex="1" parent="1">
          <mxGeometry x="1150.31" y="-2230" width="170" height="250" as="geometry" />
        </mxCell>
        <mxCell id="DTKbkBl8oeqz9tWfyzRD-73" value="&lt;span style=&quot;font-size: 16px;&quot;&gt;Digital IO x4&lt;/span&gt;" style="rounded=0;whiteSpace=wrap;html=1;fillColor=#f8cecc;strokeColor=#b85450;" vertex="1" parent="1">
          <mxGeometry x="520.31" y="-1910" width="160" height="40" as="geometry" />
        </mxCell>
        <mxCell id="DTKbkBl8oeqz9tWfyzRD-76" style="edgeStyle=orthogonalEdgeStyle;rounded=0;orthogonalLoop=1;jettySize=auto;html=1;entryX=0.796;entryY=0;entryDx=0;entryDy=0;entryPerimeter=0;strokeColor=#ff4d4d;strokeWidth=2;endArrow=none;endFill=0;startArrow=classic;startFill=1;exitX=1;exitY=0.5;exitDx=0;exitDy=0;" edge="1" parent="1" target="DTKbkBl8oeqz9tWfyzRD-5">
          <mxGeometry relative="1" as="geometry">
            <mxPoint x="1070.3099999999995" y="-1120" as="targetPoint" />
            <Array as="points">
              <mxPoint x="1070" y="-1370" />
            </Array>
            <mxPoint x="675.31" y="-1370" as="sourcePoint" />
          </mxGeometry>
        </mxCell>
        <mxCell id="DTKbkBl8oeqz9tWfyzRD-83" value="" style="endArrow=none;html=1;rounded=0;exitX=0.5;exitY=0;exitDx=0;exitDy=0;startArrow=classic;startFill=1;" edge="1" parent="1" source="DTKbkBl8oeqz9tWfyzRD-51">
          <mxGeometry width="50" height="50" relative="1" as="geometry">
            <mxPoint x="1540.31" y="-910" as="sourcePoint" />
            <mxPoint x="1540.31" y="-930" as="targetPoint" />
          </mxGeometry>
        </mxCell>
        <mxCell id="DTKbkBl8oeqz9tWfyzRD-84" value="" style="endArrow=none;html=1;rounded=0;" edge="1" parent="1">
          <mxGeometry width="50" height="50" relative="1" as="geometry">
            <mxPoint x="1540.31" y="-930" as="sourcePoint" />
            <mxPoint x="1660.31" y="-930" as="targetPoint" />
          </mxGeometry>
        </mxCell>
        <mxCell id="DTKbkBl8oeqz9tWfyzRD-85" value="" style="endArrow=none;html=1;rounded=0;endFill=0;" edge="1" parent="1">
          <mxGeometry width="50" height="50" relative="1" as="geometry">
            <mxPoint x="1660.31" y="-930" as="sourcePoint" />
            <mxPoint x="1660" y="-1050" as="targetPoint" />
          </mxGeometry>
        </mxCell>
        <mxCell id="DTKbkBl8oeqz9tWfyzRD-86" value="" style="endArrow=none;html=1;rounded=0;exitX=0.5;exitY=0;exitDx=0;exitDy=0;entryX=0.194;entryY=0.301;entryDx=0;entryDy=0;entryPerimeter=0;startArrow=classic;startFill=1;" edge="1" parent="1">
          <mxGeometry width="50" height="50" relative="1" as="geometry">
            <mxPoint x="1780.17" y="-912.5" as="sourcePoint" />
            <mxPoint x="1780.17" y="-930.5" as="targetPoint" />
          </mxGeometry>
        </mxCell>
        <mxCell id="DTKbkBl8oeqz9tWfyzRD-87" value="" style="endArrow=none;html=1;rounded=0;entryX=0.344;entryY=0.301;entryDx=0;entryDy=0;entryPerimeter=0;" edge="1" parent="1">
          <mxGeometry width="50" height="50" relative="1" as="geometry">
            <mxPoint x="1660.31" y="-930.28" as="sourcePoint" />
            <mxPoint x="1780.31" y="-930.28" as="targetPoint" />
          </mxGeometry>
        </mxCell>
        <mxCell id="DTKbkBl8oeqz9tWfyzRD-90" value="ETHERCAT IN/OUT" style="rounded=1;whiteSpace=wrap;html=1;fillColor=#647687;fontColor=#ffffff;strokeColor=#314354;" vertex="1" parent="1">
          <mxGeometry x="970.31" y="-930" width="200" height="80" as="geometry" />
        </mxCell>
        <mxCell id="DTKbkBl8oeqz9tWfyzRD-91" value="" style="endArrow=classic;html=1;rounded=0;entryX=0.5;entryY=0;entryDx=0;entryDy=0;strokeColor=#FF4D4D;strokeWidth=2;" edge="1" parent="1">
          <mxGeometry width="50" height="50" relative="1" as="geometry">
            <mxPoint x="1070.31" y="-1110" as="sourcePoint" />
            <mxPoint x="1069.89" y="-930" as="targetPoint" />
          </mxGeometry>
        </mxCell>
        <mxCell id="DTKbkBl8oeqz9tWfyzRD-92" style="edgeStyle=orthogonalEdgeStyle;rounded=0;orthogonalLoop=1;jettySize=auto;html=1;entryX=1;entryY=0.5;entryDx=0;entryDy=0;" edge="1" parent="1" source="DTKbkBl8oeqz9tWfyzRD-93" target="DTKbkBl8oeqz9tWfyzRD-29">
          <mxGeometry relative="1" as="geometry" />
        </mxCell>
        <mxCell id="DTKbkBl8oeqz9tWfyzRD-93" value="&lt;span style=&quot;font-size: 16px;&quot;&gt;ETHERNET&lt;/span&gt;" style="rounded=0;whiteSpace=wrap;html=1;fillColor=#647687;fontColor=#ffffff;strokeColor=#314354;" vertex="1" parent="1">
          <mxGeometry x="2360" y="-1620" width="150" height="50" as="geometry" />
        </mxCell>
        <mxCell id="DTKbkBl8oeqz9tWfyzRD-95" value="ETHERCAT IN/OUT" style="rounded=1;whiteSpace=wrap;html=1;fillColor=#647687;fontColor=#ffffff;strokeColor=#314354;" vertex="1" parent="1">
          <mxGeometry x="2320" y="-1000" width="200" height="80" as="geometry" />
        </mxCell>
        <mxCell id="DTKbkBl8oeqz9tWfyzRD-96" style="edgeStyle=orthogonalEdgeStyle;rounded=0;orthogonalLoop=1;jettySize=auto;html=1;startArrow=classic;startFill=1;endArrow=none;endFill=0;" edge="1" parent="1" source="DTKbkBl8oeqz9tWfyzRD-56">
          <mxGeometry relative="1" as="geometry">
            <mxPoint x="1785" y="-1110" as="targetPoint" />
            <Array as="points">
              <mxPoint x="2060" y="-1050" />
              <mxPoint x="1785" y="-1050" />
              <mxPoint x="1785" y="-1110" />
              <mxPoint x="1784" y="-1110" />
            </Array>
            <mxPoint x="2060" y="-912" as="sourcePoint" />
          </mxGeometry>
        </mxCell>
        <mxCell id="DTKbkBl8oeqz9tWfyzRD-97" value="" style="endArrow=none;html=1;rounded=0;" edge="1" parent="1">
          <mxGeometry width="50" height="50" relative="1" as="geometry">
            <mxPoint x="1660" y="-1050" as="sourcePoint" />
            <mxPoint x="1790" y="-1050" as="targetPoint" />
          </mxGeometry>
        </mxCell>
        <mxCell id="DTKbkBl8oeqz9tWfyzRD-98" value="" style="endArrow=classic;html=1;rounded=0;entryX=0.5;entryY=0;entryDx=0;entryDy=0;strokeColor=#FF4D4D;strokeWidth=2;" edge="1" parent="1" target="DTKbkBl8oeqz9tWfyzRD-95">
          <mxGeometry width="50" height="50" relative="1" as="geometry">
            <mxPoint x="2420" y="-1200" as="sourcePoint" />
            <mxPoint x="2250" y="-1040" as="targetPoint" />
          </mxGeometry>
        </mxCell>
        <mxCell id="DTKbkBl8oeqz9tWfyzRD-100" value="" style="endArrow=none;html=1;rounded=0;strokeWidth=2;strokeColor=#FF4D4D;" edge="1" parent="1">
          <mxGeometry width="50" height="50" relative="1" as="geometry">
            <mxPoint x="1070" y="-1200" as="sourcePoint" />
            <mxPoint x="2310" y="-1200" as="targetPoint" />
          </mxGeometry>
        </mxCell>
        <mxCell id="DTKbkBl8oeqz9tWfyzRD-101" value="ETHERCAT IN/OUT" style="rounded=1;whiteSpace=wrap;html=1;fillColor=#647687;fontColor=#ffffff;strokeColor=#314354;" vertex="1" parent="1">
          <mxGeometry x="3440" y="-1040" width="200" height="80" as="geometry" />
        </mxCell>
        <mxCell id="DTKbkBl8oeqz9tWfyzRD-102" value="" style="endArrow=classic;html=1;rounded=0;entryX=0.5;entryY=0;entryDx=0;entryDy=0;strokeColor=#FF4D4D;strokeWidth=2;" edge="1" parent="1">
          <mxGeometry width="50" height="50" relative="1" as="geometry">
            <mxPoint x="3540" y="-1200" as="sourcePoint" />
            <mxPoint x="3539.3999999999996" y="-1040" as="targetPoint" />
          </mxGeometry>
        </mxCell>
        <mxCell id="DTKbkBl8oeqz9tWfyzRD-103" value="" style="endArrow=none;html=1;rounded=0;strokeColor=#FF4D4D;strokeWidth=2;" edge="1" parent="1">
          <mxGeometry width="50" height="50" relative="1" as="geometry">
            <mxPoint x="2310" y="-1200" as="sourcePoint" />
            <mxPoint x="3540" y="-1200" as="targetPoint" />
          </mxGeometry>
        </mxCell>
        <mxCell id="DTKbkBl8oeqz9tWfyzRD-113" value="&lt;font style=&quot;font-size: 16px;&quot;&gt;4x STEPPER DRIVER&lt;/font&gt;&lt;div&gt;&lt;font style=&quot;font-size: 16px;&quot;&gt;WITH MCU&lt;/font&gt;&lt;/div&gt;" style="rounded=1;whiteSpace=wrap;html=1;fillColor=#d5e8d4;strokeColor=#82b366;" vertex="1" parent="1">
          <mxGeometry x="1444" y="-800" width="200" height="80" as="geometry" />
        </mxCell>
        <mxCell id="DTKbkBl8oeqz9tWfyzRD-114" value="&lt;font style=&quot;font-size: 16px;&quot;&gt;4x STEPPER DRIVER&lt;/font&gt;&lt;div&gt;&lt;font style=&quot;font-size: 16px;&quot;&gt;WITH MCU&lt;/font&gt;&lt;/div&gt;" style="rounded=1;whiteSpace=wrap;html=1;fillColor=#d5e8d4;strokeColor=#82b366;" vertex="1" parent="1">
          <mxGeometry x="1684" y="-800" width="200" height="80" as="geometry" />
        </mxCell>
        <mxCell id="DTKbkBl8oeqz9tWfyzRD-116" value="&lt;span style=&quot;font-size: 16px;&quot;&gt;4x BLDC DRIVER&lt;/span&gt;&lt;div&gt;&lt;span style=&quot;font-size: 16px;&quot;&gt;WITH MCU&lt;/span&gt;&lt;/div&gt;" style="rounded=1;whiteSpace=wrap;html=1;fillColor=#d5e8d4;strokeColor=#82b366;" vertex="1" parent="1">
          <mxGeometry x="2644.85" y="-911.25" width="200" height="80" as="geometry" />
        </mxCell>
        <mxCell id="DTKbkBl8oeqz9tWfyzRD-117" value="&lt;span style=&quot;font-size: 16px;&quot;&gt;4x BLDC DRIVER&lt;/span&gt;&lt;div&gt;&lt;span style=&quot;font-size: 16px;&quot;&gt;WITH MCU&lt;/span&gt;&lt;/div&gt;" style="rounded=1;whiteSpace=wrap;html=1;fillColor=#d5e8d4;strokeColor=#82b366;" vertex="1" parent="1">
          <mxGeometry x="2905.16" y="-911.25" width="200" height="80" as="geometry" />
        </mxCell>
        <mxCell id="DTKbkBl8oeqz9tWfyzRD-118" value="&lt;span style=&quot;font-size: 16px;&quot;&gt;4x BLDC DRIVER&lt;/span&gt;&lt;div&gt;&lt;span style=&quot;font-size: 16px;&quot;&gt;WITH MCU&lt;/span&gt;&lt;/div&gt;" style="rounded=1;whiteSpace=wrap;html=1;fillColor=#d5e8d4;strokeColor=#82b366;" vertex="1" parent="1">
          <mxGeometry x="2648.54" y="-798.75" width="200" height="80" as="geometry" />
        </mxCell>
        <mxCell id="DTKbkBl8oeqz9tWfyzRD-119" value="&lt;span style=&quot;font-size: 16px;&quot;&gt;4x BLDC DRIVER&lt;/span&gt;&lt;div&gt;&lt;span style=&quot;font-size: 16px;&quot;&gt;WITH MCU&lt;/span&gt;&lt;/div&gt;" style="rounded=1;whiteSpace=wrap;html=1;fillColor=#d5e8d4;strokeColor=#82b366;" vertex="1" parent="1">
          <mxGeometry x="2905.16" y="-798.75" width="200" height="80" as="geometry" />
        </mxCell>
        <mxCell id="DTKbkBl8oeqz9tWfyzRD-121" value="RS-232 INERFACE&lt;div&gt;WITH MCU&lt;/div&gt;" style="rounded=1;whiteSpace=wrap;html=1;fillColor=#647687;fontColor=#ffffff;strokeColor=#314354;" vertex="1" parent="1">
          <mxGeometry x="740.31" y="-832.5" width="200" height="80" as="geometry" />
        </mxCell>
        <mxCell id="DTKbkBl8oeqz9tWfyzRD-122" value="CAN INERFACE&lt;div&gt;WITH MCU&lt;/div&gt;" style="rounded=1;whiteSpace=wrap;html=1;fillColor=#647687;fontColor=#ffffff;strokeColor=#314354;" vertex="1" parent="1">
          <mxGeometry x="740.31" y="-740" width="200" height="80" as="geometry" />
        </mxCell>
        <mxCell id="DTKbkBl8oeqz9tWfyzRD-123" value="RS-485 INERFACE&lt;div&gt;WITH MCU&lt;/div&gt;" style="rounded=1;whiteSpace=wrap;html=1;fillColor=#647687;fontColor=#ffffff;strokeColor=#314354;" vertex="1" parent="1">
          <mxGeometry x="1970.31" y="-900" width="200" height="80" as="geometry" />
        </mxCell>
        <mxCell id="DTKbkBl8oeqz9tWfyzRD-124" value="RS-232 INERFACE&lt;div&gt;WITH MCU&lt;/div&gt;" style="rounded=1;whiteSpace=wrap;html=1;fillColor=#647687;fontColor=#ffffff;strokeColor=#314354;" vertex="1" parent="1">
          <mxGeometry x="1970.31" y="-802.5" width="200" height="80" as="geometry" />
        </mxCell>
        <mxCell id="DTKbkBl8oeqz9tWfyzRD-125" value="CAN INERFACE&lt;div&gt;WITH MCU&lt;/div&gt;" style="rounded=1;whiteSpace=wrap;html=1;fillColor=#647687;fontColor=#ffffff;strokeColor=#314354;" vertex="1" parent="1">
          <mxGeometry x="1970.31" y="-710" width="200" height="80" as="geometry" />
        </mxCell>
        <mxCell id="DTKbkBl8oeqz9tWfyzRD-127" value="&lt;font style=&quot;font-size: 16px;&quot;&gt;DIO INTERFACE&lt;/font&gt;&lt;div style=&quot;font-size: 16px;&quot;&gt;&lt;font style=&quot;font-size: 16px;&quot;&gt;WITH MCU&lt;/font&gt;&lt;/div&gt;" style="rounded=1;whiteSpace=wrap;html=1;" vertex="1" parent="1">
          <mxGeometry x="3160" y="-1040" width="200" height="80" as="geometry" />
        </mxCell>
        <mxCell id="DTKbkBl8oeqz9tWfyzRD-128" value="RS-485 INERFACE&lt;div&gt;WITH MCU&lt;/div&gt;" style="rounded=1;whiteSpace=wrap;html=1;fillColor=#647687;fontColor=#ffffff;strokeColor=#314354;" vertex="1" parent="1">
          <mxGeometry x="3160" y="-940" width="200" height="80" as="geometry" />
        </mxCell>
        <mxCell id="DTKbkBl8oeqz9tWfyzRD-129" value="RS-232 INERFACE&lt;div&gt;WITH MCU&lt;/div&gt;" style="rounded=1;whiteSpace=wrap;html=1;fillColor=#647687;fontColor=#ffffff;strokeColor=#314354;" vertex="1" parent="1">
          <mxGeometry x="3160" y="-842.5" width="200" height="80" as="geometry" />
        </mxCell>
        <mxCell id="DTKbkBl8oeqz9tWfyzRD-130" value="CAN INERFACE&lt;div&gt;WITH MCU&lt;/div&gt;" style="rounded=1;whiteSpace=wrap;html=1;fillColor=#647687;fontColor=#ffffff;strokeColor=#314354;" vertex="1" parent="1">
          <mxGeometry x="3160" y="-750" width="200" height="80" as="geometry" />
        </mxCell>
        <mxCell id="DTKbkBl8oeqz9tWfyzRD-132" value="" style="endArrow=classic;html=1;rounded=0;entryX=0.5;entryY=0;entryDx=0;entryDy=0;endFill=1;" edge="1" parent="1" target="DTKbkBl8oeqz9tWfyzRD-127">
          <mxGeometry width="50" height="50" relative="1" as="geometry">
            <mxPoint x="3010" y="-1070" as="sourcePoint" />
            <mxPoint x="3060" y="-1120" as="targetPoint" />
            <Array as="points">
              <mxPoint x="3260" y="-1070" />
            </Array>
          </mxGeometry>
        </mxCell>
        <mxCell id="DTKbkBl8oeqz9tWfyzRD-135" value="" style="endArrow=none;html=1;rounded=0;" edge="1" parent="1">
          <mxGeometry width="50" height="50" relative="1" as="geometry">
            <mxPoint x="460" y="-1070" as="sourcePoint" />
            <mxPoint x="750" y="-1070" as="targetPoint" />
          </mxGeometry>
        </mxCell>
        <mxCell id="DTKbkBl8oeqz9tWfyzRD-136" value="&lt;font style=&quot;font-size: 16px;&quot;&gt;4x SERVO DRIVER&lt;br&gt;WITH MCU&lt;/font&gt;" style="rounded=1;whiteSpace=wrap;html=1;fillColor=#d5e8d4;strokeColor=#82b366;" vertex="1" parent="1">
          <mxGeometry x="240" y="-800" width="200" height="80" as="geometry" />
        </mxCell>
        <mxCell id="DTKbkBl8oeqz9tWfyzRD-137" value="&lt;font style=&quot;font-size: 16px;&quot;&gt;4x SERVO DRIVER&lt;/font&gt;&lt;div&gt;&lt;font style=&quot;font-size: 16px;&quot;&gt;WITH MCU&lt;/font&gt;&lt;/div&gt;" style="rounded=1;whiteSpace=wrap;html=1;fillColor=#d5e8d4;strokeColor=#82b366;" vertex="1" parent="1">
          <mxGeometry x="480" y="-800" width="200" height="80" as="geometry" />
        </mxCell>
        <mxCell id="DTKbkBl8oeqz9tWfyzRD-139" value="" style="endArrow=none;html=1;rounded=0;exitX=0.366;exitY=-0.001;exitDx=0;exitDy=0;exitPerimeter=0;" edge="1" parent="1" source="DTKbkBl8oeqz9tWfyzRD-1">
          <mxGeometry width="50" height="50" relative="1" as="geometry">
            <mxPoint x="2960" y="-1020" as="sourcePoint" />
            <mxPoint x="3010" y="-1070" as="targetPoint" />
          </mxGeometry>
        </mxCell>
        <mxCell id="DTKbkBl8oeqz9tWfyzRD-144" value="&lt;font style=&quot;font-size: 16px;&quot;&gt;BOARD 1&lt;/font&gt;&lt;div&gt;&lt;font style=&quot;font-size: 16px;&quot;&gt;x4&lt;/font&gt;&lt;/div&gt;" style="rounded=1;whiteSpace=wrap;html=1;fillColor=#D5E8D4;" vertex="1" parent="1">
          <mxGeometry x="3240" y="-2035" width="120" height="60" as="geometry" />
        </mxCell>
        <mxCell id="DTKbkBl8oeqz9tWfyzRD-145" value="&lt;font style=&quot;font-size: 16px;&quot;&gt;BOARD 2&lt;/font&gt;&lt;div&gt;&lt;font style=&quot;font-size: 16px;&quot;&gt;x4&lt;/font&gt;&lt;/div&gt;" style="rounded=1;whiteSpace=wrap;html=1;fillColor=#D5E8D4;" vertex="1" parent="1">
          <mxGeometry x="3480" y="-2035" width="120" height="60" as="geometry" />
        </mxCell>
        <mxCell id="DTKbkBl8oeqz9tWfyzRD-146" value="&lt;font style=&quot;font-size: 16px;&quot;&gt;BOARD 3&lt;/font&gt;&lt;div&gt;&lt;font style=&quot;font-size: 16px;&quot;&gt;x4&lt;/font&gt;&lt;/div&gt;" style="rounded=1;whiteSpace=wrap;html=1;fillColor=#D5E8D4;" vertex="1" parent="1">
          <mxGeometry x="3240" y="-1950" width="120" height="60" as="geometry" />
        </mxCell>
        <mxCell id="DTKbkBl8oeqz9tWfyzRD-147" value="&lt;font style=&quot;font-size: 16px;&quot;&gt;BOARD 4&lt;/font&gt;&lt;div&gt;&lt;font style=&quot;font-size: 16px;&quot;&gt;x4&lt;/font&gt;&lt;/div&gt;" style="rounded=1;whiteSpace=wrap;html=1;fillColor=#D5E8D4;" vertex="1" parent="1">
          <mxGeometry x="3480" y="-1950" width="120" height="60" as="geometry" />
        </mxCell>
        <mxCell id="DTKbkBl8oeqz9tWfyzRD-151" value="&lt;font style=&quot;font-size: 16px;&quot;&gt;SOLENOID BOARD&lt;/font&gt;" style="text;html=1;align=center;verticalAlign=middle;whiteSpace=wrap;rounded=0;" vertex="1" parent="1">
          <mxGeometry x="3340" y="-2090" width="170" height="30" as="geometry" />
        </mxCell>
        <mxCell id="DTKbkBl8oeqz9tWfyzRD-152" value="" style="rounded=0;whiteSpace=wrap;html=1;" vertex="1" parent="1">
          <mxGeometry x="3190" y="-1860" width="480" height="240" as="geometry" />
        </mxCell>
        <mxCell id="DTKbkBl8oeqz9tWfyzRD-153" value="&lt;font style=&quot;font-size: 16px;&quot;&gt;BOARD 1&lt;/font&gt;&lt;div&gt;&lt;font style=&quot;font-size: 16px;&quot;&gt;x4&lt;/font&gt;&lt;/div&gt;" style="rounded=1;whiteSpace=wrap;html=1;fillColor=#D5E8D4;" vertex="1" parent="1">
          <mxGeometry x="3240" y="-1780" width="120" height="60" as="geometry" />
        </mxCell>
        <mxCell id="DTKbkBl8oeqz9tWfyzRD-154" value="&lt;font style=&quot;font-size: 16px;&quot;&gt;BOARD 2&lt;/font&gt;&lt;div&gt;&lt;font style=&quot;font-size: 16px;&quot;&gt;x4&lt;/font&gt;&lt;/div&gt;" style="rounded=1;whiteSpace=wrap;html=1;fillColor=#D5E8D4;" vertex="1" parent="1">
          <mxGeometry x="3480" y="-1780" width="120" height="60" as="geometry" />
        </mxCell>
        <mxCell id="DTKbkBl8oeqz9tWfyzRD-155" value="&lt;font style=&quot;font-size: 16px;&quot;&gt;BOARD 3&lt;/font&gt;&lt;div&gt;&lt;font style=&quot;font-size: 16px;&quot;&gt;x4&lt;/font&gt;&lt;/div&gt;" style="rounded=1;whiteSpace=wrap;html=1;fillColor=#D5E8D4;" vertex="1" parent="1">
          <mxGeometry x="3240" y="-1695" width="120" height="60" as="geometry" />
        </mxCell>
        <mxCell id="DTKbkBl8oeqz9tWfyzRD-156" value="&lt;font style=&quot;font-size: 16px;&quot;&gt;BOARD 4&lt;/font&gt;&lt;div&gt;&lt;font style=&quot;font-size: 16px;&quot;&gt;x4&lt;/font&gt;&lt;/div&gt;" style="rounded=1;whiteSpace=wrap;html=1;fillColor=#D5E8D4;" vertex="1" parent="1">
          <mxGeometry x="3480" y="-1695" width="120" height="60" as="geometry" />
        </mxCell>
        <mxCell id="DTKbkBl8oeqz9tWfyzRD-157" value="&lt;font style=&quot;font-size: 16px;&quot;&gt;RELAY BOARD 1&lt;/font&gt;" style="text;html=1;align=center;verticalAlign=middle;whiteSpace=wrap;rounded=0;" vertex="1" parent="1">
          <mxGeometry x="3340" y="-1835" width="170" height="30" as="geometry" />
        </mxCell>
        <mxCell id="DTKbkBl8oeqz9tWfyzRD-167" style="edgeStyle=orthogonalEdgeStyle;rounded=0;orthogonalLoop=1;jettySize=auto;html=1;exitX=0;exitY=0.5;exitDx=0;exitDy=0;endArrow=none;endFill=0;startArrow=classic;startFill=1;" edge="1" parent="1" source="DTKbkBl8oeqz9tWfyzRD-158">
          <mxGeometry relative="1" as="geometry">
            <mxPoint x="2680" y="-1489.75" as="targetPoint" />
          </mxGeometry>
        </mxCell>
        <mxCell id="DTKbkBl8oeqz9tWfyzRD-158" value="" style="rounded=0;whiteSpace=wrap;html=1;" vertex="1" parent="1">
          <mxGeometry x="3190" y="-1610" width="480" height="240" as="geometry" />
        </mxCell>
        <mxCell id="DTKbkBl8oeqz9tWfyzRD-159" value="&lt;font style=&quot;font-size: 16px;&quot;&gt;BOARD 1&lt;/font&gt;&lt;div&gt;&lt;font style=&quot;font-size: 16px;&quot;&gt;x4&lt;/font&gt;&lt;/div&gt;" style="rounded=1;whiteSpace=wrap;html=1;fillColor=#D5E8D4;" vertex="1" parent="1">
          <mxGeometry x="3240" y="-1530" width="120" height="60" as="geometry" />
        </mxCell>
        <mxCell id="DTKbkBl8oeqz9tWfyzRD-160" value="&lt;font style=&quot;font-size: 16px;&quot;&gt;BOARD 2&lt;/font&gt;&lt;div&gt;&lt;font style=&quot;font-size: 16px;&quot;&gt;x4&lt;/font&gt;&lt;/div&gt;" style="rounded=1;whiteSpace=wrap;html=1;fillColor=#D5E8D4;" vertex="1" parent="1">
          <mxGeometry x="3480" y="-1530" width="120" height="60" as="geometry" />
        </mxCell>
        <mxCell id="DTKbkBl8oeqz9tWfyzRD-161" value="&lt;font style=&quot;font-size: 16px;&quot;&gt;BOARD 3&lt;/font&gt;&lt;div&gt;&lt;font style=&quot;font-size: 16px;&quot;&gt;x4&lt;/font&gt;&lt;/div&gt;" style="rounded=1;whiteSpace=wrap;html=1;fillColor=#D5E8D4;" vertex="1" parent="1">
          <mxGeometry x="3240" y="-1445" width="120" height="60" as="geometry" />
        </mxCell>
        <mxCell id="DTKbkBl8oeqz9tWfyzRD-162" value="&lt;font style=&quot;font-size: 16px;&quot;&gt;BOARD 4&lt;/font&gt;&lt;div&gt;&lt;font style=&quot;font-size: 16px;&quot;&gt;x4&lt;/font&gt;&lt;/div&gt;" style="rounded=1;whiteSpace=wrap;html=1;fillColor=#D5E8D4;" vertex="1" parent="1">
          <mxGeometry x="3480" y="-1445" width="120" height="60" as="geometry" />
        </mxCell>
        <mxCell id="DTKbkBl8oeqz9tWfyzRD-163" value="&lt;span style=&quot;font-size: 16px;&quot;&gt;RELAY BOARD 2&lt;/span&gt;" style="text;html=1;align=center;verticalAlign=middle;whiteSpace=wrap;rounded=0;" vertex="1" parent="1">
          <mxGeometry x="3340" y="-1585" width="170" height="30" as="geometry" />
        </mxCell>
        <mxCell id="DTKbkBl8oeqz9tWfyzRD-165" style="edgeStyle=orthogonalEdgeStyle;rounded=0;orthogonalLoop=1;jettySize=auto;html=1;exitX=1;exitY=0.75;exitDx=0;exitDy=0;entryX=0.006;entryY=0.446;entryDx=0;entryDy=0;entryPerimeter=0;" edge="1" parent="1" source="DTKbkBl8oeqz9tWfyzRD-29" target="DTKbkBl8oeqz9tWfyzRD-152">
          <mxGeometry relative="1" as="geometry">
            <Array as="points">
              <mxPoint x="1990" y="-1490" />
              <mxPoint x="2680" y="-1490" />
              <mxPoint x="2680" y="-1753" />
            </Array>
          </mxGeometry>
        </mxCell>
        <mxCell id="DTKbkBl8oeqz9tWfyzRD-168" value="&lt;span style=&quot;font-size: 16px;&quot;&gt;RS-485/CAN/USB/RS-232&lt;/span&gt;" style="text;html=1;align=center;verticalAlign=middle;whiteSpace=wrap;rounded=0;" vertex="1" parent="1">
          <mxGeometry x="2860" y="-1800" width="210" height="60" as="geometry" />
        </mxCell>
        <mxCell id="DTKbkBl8oeqz9tWfyzRD-169" value="&lt;span style=&quot;font-size: 16px;&quot;&gt;RS-485/CAN/USB/RS-232&lt;/span&gt;" style="text;html=1;align=center;verticalAlign=middle;whiteSpace=wrap;rounded=0;" vertex="1" parent="1">
          <mxGeometry x="2860" y="-1530" width="210" height="60" as="geometry" />
        </mxCell>
        <mxCell id="DTKbkBl8oeqz9tWfyzRD-172" value="" style="rounded=0;whiteSpace=wrap;html=1;fillColor=none;dashed=1;strokeWidth=3;" vertex="1" parent="1">
          <mxGeometry x="880" y="-1770" width="1160" height="410" as="geometry" />
        </mxCell>
        <mxCell id="DTKbkBl8oeqz9tWfyzRD-173" value="ETHERCAT IN/OUT" style="rounded=1;whiteSpace=wrap;html=1;fillColor=#647687;fontColor=#ffffff;strokeColor=#314354;" vertex="1" parent="1">
          <mxGeometry x="475.31" y="-1410" width="200" height="80" as="geometry" />
        </mxCell>
      </root>
    </mxGraphModel>
  </diagram>
</mxfile>
